<?xml version="1.0" standalone="no"?>
<!DOCTYPE svg PUBLIC "-//W3C//DTD SVG 20010904//EN"
 "http://www.w3.org/TR/2001/REC-SVG-20010904/DTD/svg10.dtd">
<svg version="1.0" xmlns="http://www.w3.org/2000/svg"
 width="512.000000pt" height="512.000000pt" viewBox="0 0 512.000000 512.000000"
 preserveAspectRatio="xMidYMid meet">

<g transform="translate(0.000000,512.000000) scale(0.100000,-0.100000)"
fill="#FFA724" stroke="none">
<path d="M2170 5114 c-313 -37 -507 -100 -745 -242 -209 -125 -432 -348 -557
-557 -115 -193 -182 -372 -225 -600 -20 -107 -31 -1160 -13 -1205 21 -50 92
-57 126 -12 11 13 13 120 14 510 0 272 5 536 10 590 19 172 77 377 146 514
172 344 477 624 821 753 498 188 1044 114 1462 -199 105 -79 195 -166 184
-177 -6 -6 -43 -22 -83 -37 -86 -32 -113 -61 -113 -122 0 -62 27 -90 120 -125
144 -54 178 -88 227 -225 33 -89 47 -107 98 -121 33 -9 46 -7 79 9 l39 19 10
-36 c47 -176 60 -345 60 -783 0 -324 0 -327 22 -348 46 -42 111 -13 124 56 4
20 4 212 1 428 -7 468 -17 551 -99 794 l-31 92 29 31 c33 35 100 72 160 88 57
15 91 45 105 91 10 32 9 44 -7 77 -20 39 -47 57 -135 88 -100 34 -160 94 -194
194 -30 87 -49 115 -87 134 -73 36 -135 1 -167 -96 -34 -99 -31 -99 -106 -31
-271 240 -546 376 -875 430 -86 15 -336 26 -400 18z m1600 -684 c22 -22 65
-52 96 -68 l56 -28 -68 -40 c-67 -39 -120 -95 -159 -167 -11 -20 -22 -37 -25
-37 -3 0 -16 21 -30 48 -14 26 -45 67 -70 92 -25 25 -66 56 -92 70 -27 14 -48
27 -48 30 0 3 21 16 46 30 63 33 126 96 165 165 l32 58 29 -57 c16 -31 46 -74
68 -96z"/>
<path d="M2738 4093 c-8 -10 -34 -56 -57 -103 -241 -486 -816 -959 -1336
-1098 -101 -27 -262 -52 -338 -52 -48 0 -62 -4 -82 -25 -32 -31 -32 -69 1
-102 24 -24 30 -25 111 -22 l85 4 28 -70 c116 -304 315 -558 562 -721 l68 -44
0 -153 0 -153 -197 -48 c-109 -27 -220 -57 -248 -67 -27 -11 -53 -19 -57 -19
-4 0 -8 114 -10 253 -3 241 -4 254 -26 300 -67 135 -287 286 -491 338 -133 34
-218 14 -268 -61 l-23 -33 0 -502 0 -502 -23 -12 c-12 -6 -33 -28 -47 -48 -24
-36 -25 -42 -28 -245 -3 -180 -1 -213 13 -234 20 -32 53 -44 84 -32 37 14 50
38 51 96 l0 52 355 0 355 0 -2 -317 -3 -318 -350 0 -350 0 -3 140 c-2 127 -5
141 -24 162 -31 33 -80 31 -108 -4 -20 -26 -21 -37 -18 -185 l3 -156 30 -38
c62 -76 53 -75 481 -72 l381 3 37 29 c61 46 76 91 76 229 l0 117 1159 0 c638
0 1167 3 1176 6 37 15 41 52 29 256 -16 246 -20 278 -50 366 l-25 73 49 67
c67 91 112 173 112 205 0 51 -62 83 -110 57 -11 -6 -37 -41 -59 -78 -22 -37
-50 -78 -61 -92 l-20 -25 -42 46 c-109 118 -206 165 -488 236 l-220 56 1 156
0 156 71 45 c39 25 116 88 170 140 83 80 98 100 98 126 0 38 -36 74 -73 74
-20 0 -50 -21 -115 -81 -293 -273 -614 -368 -917 -272 -277 87 -552 345 -710
666 -36 72 -65 137 -65 144 0 7 19 17 43 23 238 60 450 155 666 298 255 168
524 431 697 679 l51 73 17 -83 c83 -390 280 -682 554 -821 28 -14 52 -28 52
-31 0 -24 -78 -232 -114 -303 -53 -107 -58 -141 -20 -171 34 -26 54 -26 88 0
35 27 115 196 157 328 l32 103 72 -7 c86 -8 118 10 118 65 0 44 -37 75 -100
84 -249 36 -452 194 -581 452 -71 141 -131 380 -148 593 -5 62 -12 89 -25 102
-24 24 -81 25 -101 2z m-2007 -1929 c126 -37 310 -159 367 -244 l24 -35 -37
-3 c-108 -10 -345 115 -435 230 -22 27 -40 54 -40 59 0 14 61 11 121 -7z m-22
-301 c115 -76 271 -133 365 -133 l46 0 0 -250 0 -250 -255 0 -255 0 0 351 0
351 23 -16 c12 -9 46 -33 76 -53z m1291 -102 c172 -61 375 -66 545 -16 50 15
98 30 108 32 16 5 17 -6 17 -138 0 -123 3 -148 19 -175 24 -39 34 -43 299
-109 123 -31 247 -67 275 -81 179 -90 288 -253 307 -458 5 -50 11 -135 15
-188 l6 -98 -1110 0 -1111 0 0 271 c0 178 -4 285 -12 311 -7 22 -28 53 -50 74
-25 22 -37 41 -34 50 11 28 116 66 348 124 130 33 243 67 257 78 39 29 50 74
50 215 1 70 5 127 9 127 4 0 32 -9 62 -19z m-782 -753 l3 -68 -356 0 -355 0 0
63 c0 35 3 67 7 70 4 4 162 6 352 5 l346 -3 3 -67z"/>
<path d="M4120 2631 c-146 -49 -609 -220 -649 -241 -117 -59 -166 -216 -106
-337 20 -40 77 -98 273 -279 230 -213 247 -231 253 -268 5 -34 255 -736 303
-851 22 -53 91 -120 149 -146 70 -31 173 -32 238 -3 110 51 174 149 174 269 0
65 -10 98 -153 490 -84 231 -161 432 -172 446 -18 26 -18 31 21 330 41 323 45
381 28 443 -16 57 -90 131 -155 156 -71 26 -102 25 -204 -9z m192 -157 c37
-36 36 -63 -10 -423 l-37 -284 -143 -53 -142 -52 -223 205 c-122 113 -232 217
-244 231 -31 37 -31 102 0 136 12 14 39 32 59 40 38 15 38 15 44 -12 20 -91
113 -271 165 -317 28 -26 78 -24 101 4 28 35 22 72 -22 140 -65 100 -92 161
-94 209 l-1 45 115 42 c63 24 118 41 123 38 24 -14 57 -110 73 -212 20 -130
37 -161 89 -161 25 0 39 7 55 27 19 24 21 36 15 83 -15 126 -34 210 -60 264
-15 31 -25 59 -24 60 2 2 18 8 34 14 44 16 94 7 127 -24z m38 -958 c11 -33 19
-61 17 -63 -7 -6 -249 -93 -261 -93 -10 0 -51 98 -51 124 0 12 258 106 267 97
4 -3 17 -33 28 -65z m168 -460 c50 -140 92 -267 92 -282 0 -15 -11 -46 -25
-70 -46 -78 -150 -95 -216 -36 -24 22 -48 75 -119 269 -49 133 -90 249 -92
259 -2 14 23 27 127 65 72 26 132 48 135 49 3 0 47 -115 98 -254z"/>
</g>
</svg>
