<?xml version="1.0" standalone="no"?>
<!DOCTYPE svg PUBLIC "-//W3C//DTD SVG 20010904//EN"
 "http://www.w3.org/TR/2001/REC-SVG-20010904/DTD/svg10.dtd">
<svg version="1.0" xmlns="http://www.w3.org/2000/svg"
 width="512.000000pt" height="512.000000pt" viewBox="0 0 512.000000 512.000000"
 preserveAspectRatio="xMidYMid meet">

<g transform="translate(0.000000,512.000000) scale(0.100000,-0.100000)"
fill="#FFA724" stroke="none">
<path d="M4817 5106 c-46 -17 -36 -10 -457 -350 -497 -403 -1098 -902 -1548
-1287 l-73 -62 -762 760 c-652 650 -770 764 -819 787 -106 51 -231 51 -336 0
-47 -22 -123 -93 -439 -408 -336 -334 -383 -385 -383 -411 1 -55 51 -91 100
-73 14 5 136 120 272 256 l248 247 52 -53 53 -52 -252 -253 c-138 -138 -254
-262 -257 -273 -13 -43 31 -94 82 -94 9 0 132 116 274 257 l258 257 55 -54 55
-55 -255 -255 c-228 -229 -255 -259 -255 -288 0 -42 30 -72 72 -72 29 0 60 28
288 255 l255 255 53 -52 52 -52 -255 -257 c-218 -218 -255 -260 -255 -285 1
-54 51 -90 100 -72 14 5 136 120 272 256 l248 247 52 -53 53 -52 -252 -253
c-138 -138 -254 -262 -257 -273 -13 -43 31 -94 82 -94 9 0 132 116 274 257
l258 257 55 -54 55 -55 -255 -255 c-228 -229 -255 -259 -255 -288 0 -42 30
-72 72 -72 29 0 60 28 288 255 l256 255 54 -55 54 -55 -257 -258 c-266 -267
-276 -281 -243 -324 19 -25 57 -37 86 -26 14 5 136 120 272 256 l248 247 52
-53 53 -52 -252 -252 c-138 -139 -254 -263 -257 -275 -8 -24 8 -61 33 -80 42
-32 57 -21 323 244 l258 258 57 -57 c31 -32 55 -59 53 -61 -64 -50 -766 -673
-862 -764 -83 -78 -82 -75 -10 -194 91 -151 96 -334 15 -498 -40 -81 -353
-394 -439 -439 -174 -90 -381 -78 -547 32 -272 181 -303 579 -62 809 66 63
142 105 235 128 185 47 373 -9 513 -153 42 -43 52 -49 84 -46 46 4 79 43 69
82 -9 36 -68 99 -142 152 -162 116 -346 156 -532 118 -329 -68 -558 -363 -538
-694 6 -114 24 -179 79 -285 132 -255 443 -401 727 -341 36 8 66 13 67 12 1 0
-5 -30 -14 -66 -22 -96 -13 -252 22 -354 68 -196 226 -351 430 -422 71 -25 94
-28 205 -28 140 0 199 13 309 69 174 89 305 255 352 445 17 71 17 239 0 310
-20 80 -71 186 -125 258 l-48 62 69 78 c179 199 650 731 758 855 66 75 122
137 125 137 3 0 30 -25 60 -55 l54 -55 -257 -258 c-265 -266 -276 -281 -244
-323 19 -25 56 -41 80 -33 12 3 136 119 275 257 l252 252 52 -53 53 -52 -247
-248 c-136 -136 -251 -258 -256 -272 -11 -29 0 -67 26 -86 43 -33 57 -23 324
243 l258 257 55 -54 55 -54 -255 -256 c-227 -228 -255 -259 -255 -288 0 -42
30 -72 72 -72 29 0 59 27 288 255 l255 255 55 -55 54 -55 -257 -258 c-141
-142 -257 -265 -257 -274 0 -51 51 -95 94 -82 11 3 135 119 273 257 l253 252
52 -53 53 -52 -247 -248 c-136 -136 -251 -258 -256 -272 -20 -55 28 -110 85
-96 18 5 113 92 278 257 l250 249 53 -52 52 -53 -255 -255 c-227 -228 -255
-259 -255 -288 0 -42 30 -72 72 -72 29 0 59 27 288 255 l255 255 55 -55 54
-55 -257 -258 c-141 -142 -257 -265 -257 -274 0 -51 51 -95 94 -82 11 3 135
119 273 257 l253 252 52 -53 53 -52 -247 -248 c-136 -136 -251 -258 -256 -272
-18 -49 18 -99 73 -100 26 0 77 47 411 383 411 412 424 428 444 550 5 35 5 79
0 114 -21 129 -1 106 -823 930 -697 698 -759 763 -746 780 8 10 102 121 209
248 593 699 1412 1696 1460 1778 50 85 34 194 -39 267 -67 66 -149 86 -234 56z
m-1460 -1644 c-1387 -1387 -1477 -1479 -1477 -1511 0 -46 24 -71 69 -71 34 0
99 63 1515 1478 814 812 1473 1468 1465 1457 -199 -258 -975 -1198 -1453
-1760 -484 -570 -1366 -1575 -1388 -1584 -6 -2 -36 23 -67 55 -44 45 -60 71
-70 109 -20 78 -29 95 -57 105 -32 13 -58 6 -84 -23 -25 -26 -25 -49 0 -129
23 -75 83 -164 139 -205 l39 -29 -79 -89 c-100 -114 -102 -133 -28 -208 198
-201 222 -481 60 -697 -114 -152 -304 -230 -493 -202 -359 52 -556 444 -385
766 23 44 82 112 212 246 145 149 188 199 218 257 98 188 103 413 12 598 l-35
70 29 25 c15 14 108 97 207 185 840 752 1974 1711 3024 2558 52 42 97 77 100
77 3 0 -660 -665 -1473 -1478z m-2267 1357 c19 -10 371 -354 783 -766 l747
-748 -142 -123 -143 -122 -805 805 -805 805 65 66 c36 36 79 73 95 82 63 33
141 34 205 1z m3732 -3734 c28 -53 28 -137 0 -191 -11 -21 -50 -68 -86 -104
l-66 -65 -807 807 -806 806 123 142 124 141 748 -748 c456 -455 757 -764 770
-788z"/>
<path d="M1408 1031 c-105 -35 -178 -103 -230 -216 -19 -41 -23 -67 -23 -145
0 -84 3 -102 28 -153 37 -74 110 -147 184 -183 51 -25 69 -28 153 -29 82 0
103 4 153 27 80 38 158 115 193 191 38 82 40 201 5 289 -31 79 -106 159 -186
199 -83 41 -192 49 -277 20z m183 -142 c147 -45 205 -235 106 -354 -81 -99
-226 -111 -319 -27 -99 89 -105 224 -15 319 63 66 142 87 228 62z"/>
<path d="M568 1881 c-108 -35 -188 -106 -235 -206 -24 -52 -28 -72 -28 -150 0
-80 4 -97 31 -155 100 -211 356 -283 549 -155 60 41 97 86 133 163 23 48 27
71 27 147 0 77 -4 99 -27 148 -81 174 -278 265 -450 208z m176 -143 c54 -16
128 -90 144 -144 26 -89 8 -160 -57 -225 -92 -93 -220 -93 -312 0 -93 92 -92
218 1 311 65 65 136 84 224 58z"/>
</g>
</svg>
