<?xml version="1.0" standalone="no"?>
<!DOCTYPE svg PUBLIC "-//W3C//DTD SVG 20010904//EN"
 "http://www.w3.org/TR/2001/REC-SVG-20010904/DTD/svg10.dtd">
<svg version="1.0" xmlns="http://www.w3.org/2000/svg"
 width="512.000000pt" height="512.000000pt" viewBox="0 0 512.000000 512.000000"
 preserveAspectRatio="xMidYMid meet">

<g transform="translate(0.000000,512.000000) scale(0.100000,-0.100000)"
fill="#FFA724" stroke="none">
<path d="M1750 4918 c-421 -29 -581 -43 -597 -53 -15 -10 -35 -55 -67 -152
-25 -76 -46 -148 -46 -161 0 -13 11 -34 25 -47 20 -21 34 -25 80 -25 l55 0 0
-160 0 -160 -55 0 c-93 0 -94 -2 -143 -300 -23 -140 -42 -265 -42 -276 0 -16
-17 -31 -67 -60 -80 -47 -238 -195 -298 -279 -98 -138 -165 -311 -186 -482
l-13 -100 153 -1149 c84 -632 158 -1167 164 -1189 15 -54 98 -137 153 -153 60
-17 3468 -17 3528 0 55 16 138 99 154 154 7 26 12 108 12 215 0 168 5 215 160
1374 156 1168 160 1204 160 1378 0 176 0 178 -25 202 l-24 25 -831 0 -831 0
-24 -25 c-25 -24 -25 -26 -25 -202 0 -164 6 -221 70 -703 38 -289 71 -538 72
-555 3 -29 1 -30 -32 -27 -67 6 -143 33 -171 62 -26 25 -28 33 -23 73 6 40 3
49 -19 71 -22 22 -35 26 -85 26 -78 0 -217 -25 -287 -51 -31 -12 -59 -19 -61
-16 -3 3 9 110 26 238 36 265 35 325 -5 486 -29 115 -103 273 -169 359 -66 89
-211 223 -289 268 -50 29 -67 44 -67 60 0 11 -19 136 -42 276 -49 298 -50 300
-143 300 l-55 0 0 160 0 160 295 0 296 0 24 25 c25 24 25 26 25 215 0 189 0
191 -25 215 -30 31 12 32 -705 -17z m570 -203 l0 -75 -544 0 -545 0 11 33 c6
17 15 36 20 42 7 8 843 70 996 74 l62 1 0 -75z m-640 -395 l0 -160 -160 0
-160 0 0 160 0 160 160 0 160 0 0 -160z m175 -342 c9 -42 45 -265 45 -282 0
-15 -35 -16 -380 -16 -345 0 -380 1 -380 16 0 17 36 240 45 282 l5 22 330 0
330 0 5 -22z m-35 -486 c365 -101 625 -408 655 -775 8 -93 -66 -655 -88 -672
-8 -5 -57 -46 -111 -90 -170 -141 -252 -181 -396 -192 -59 -5 -79 -11 -97 -29
-22 -22 -23 -31 -23 -159 l0 -135 -27 0 c-41 0 -125 -43 -155 -78 -59 -70 -59
-74 -56 -580 l3 -462 -308 0 -308 0 -24 25 c-14 13 -25 30 -25 37 0 7 -68 522
-151 1143 -151 1129 -151 1130 -140 1225 45 372 338 685 707 755 121 22 444
15 544 -13z m2900 -212 l0 -80 -720 0 -720 0 0 80 0 80 720 0 720 0 0 -80z
m-14 -267 c-3 -16 -69 -505 -146 -1088 -77 -583 -143 -1075 -146 -1092 l-6
-33 -244 0 -244 0 0 228 c0 218 -1 229 -24 277 -13 28 -34 60 -47 72 -31 29
-107 63 -141 63 l-26 0 -4 153 c-3 141 -5 156 -30 210 -15 32 -37 70 -48 85
-29 36 -106 89 -141 97 -16 4 -29 9 -29 11 0 13 -131 992 -136 1017 l-6 27
712 0 712 0 -6 -27z m-1815 -983 c50 -117 167 -170 412 -188 120 -9 155 -21
177 -62 11 -20 8 -20 -587 -20 l-598 1 35 30 c208 181 333 252 485 278 28 5
51 9 52 10 1 0 12 -22 24 -49z m629 -510 l0 -80 -800 0 -800 0 0 80 0 80 800
0 800 0 0 -80z m217 -262 l23 -21 0 -436 c0 -433 0 -435 -22 -458 l-21 -23
-996 0 -995 0 -23 22 -23 21 0 436 c0 433 0 435 22 458 l21 23 996 0 995 0 23
-22z m663 -753 c0 -131 -1 -137 -25 -160 l-24 -25 -222 0 c-198 0 -220 2 -215
16 3 9 6 81 6 160 l0 144 240 0 240 0 0 -135z"/>
<path d="M985 2935 l-25 -24 0 -271 0 -271 25 -24 24 -25 511 0 511 0 24 25
25 24 0 271 0 271 -25 24 -24 25 -511 0 -511 0 -24 -25z m935 -295 l0 -160
-400 0 -400 0 0 160 0 160 400 0 400 0 0 -160z"/>
<path d="M3861 2704 c-228 -49 -328 -211 -209 -340 150 -162 542 -165 692 -4
75 80 75 160 0 240 -94 100 -298 145 -483 104z m250 -158 c66 -15 124 -46 124
-66 0 -35 -133 -80 -235 -80 -102 0 -235 45 -235 80 0 8 15 23 34 34 74 43
208 57 312 32z"/>
<path d="M2620 1104 c-142 -52 -229 -183 -218 -327 26 -318 443 -407 597 -127
33 60 36 71 36 150 -1 72 -5 93 -27 136 -39 75 -70 107 -138 143 -76 41 -179
51 -250 25z m163 -158 c103 -43 128 -177 48 -257 -65 -65 -157 -65 -222 0
-124 123 13 325 174 257z"/>
</g>
</svg>
